# xmcd
#
# Track frame offsets: 
#        150
#        11400
#        26764
#        39964
#        58427
#        70002
#        86281
#        106841
#        121841
#        142660
#        163443
#
# Disc length: 2527 seconds
#
# Revision: 0
# Processed by: cddbd v1.5.2PL0 Copyright (c) Steve Scherf et al.
# Submitted via: ExactAudioCopy v0.95a5
#
DISCID=8609dd0b
DTITLE=The Cavaliers - Cavaliers
DYEAR=1900
DGENRE=Country
TTITLE0=Hard Coming Home
TTITLE1=Someone Else I Want
TTITLE2=All I Need To Do
TTITLE3=The End Of Broken Hearts
TTITLE4=Five Times A Day
TTITLE5=I've Seen The World
TTITLE6=Under My Skin
TTITLE7=Green Eyes
TTITLE8=The World On My Own
TTITLE9=Everything Is Going To Break Down
TTITLE10=Falling Behind
EXTD=
EXTT0=
EXTT1=
EXTT2=
EXTT3=
EXTT4=
EXTT5=
EXTT6=
EXTT7=
EXTT8=
EXTT9=
EXTT10=
PLAYORDER=
